<?xml version="1.0" standalone="no"?>
<!DOCTYPE svg PUBLIC "-//W3C//DTD SVG 20010904//EN"
 "https://www.w3.org/TR/2001/REC-SVG-20010904/DTD/svg10.dtd">
<svg version="1.0" xmlns="https://www.w3.org/2000/svg"
 width="225.000000pt" height="225.000000pt" viewBox="0 0 225.000000 225.000000"
 preserveAspectRatio="xMidYMid meet">
<metadata>
Created by potrace 1.11, written by Peter Selinger 2001-2013
</metadata>
<g transform="translate(0.000000,225.000000) scale(0.100000,-0.100000)"
fill="#000000" stroke="none">
<path d="M1128 1825 c-13 -15 -32 -25 -49 -25 -16 0 -32 -8 -41 -21 -10 -16
-26 -22 -65 -24 -44 -2 -55 1 -74 21 -29 31 -66 31 -90 0 -13 -16 -26 -22 -39
-19 -16 4 -33 -7 -68 -43 -25 -27 -51 -49 -57 -50 -5 0 -20 -2 -32 -2 -12 -1
-24 -11 -28 -22 -9 -28 -68 -28 -88 1 -29 40 -63 32 -128 -33 -52 -52 -59 -64
-59 -98 0 -29 7 -45 26 -64 28 -25 28 -56 0 -56 -16 0 -31 -34 -21 -50 3 -5
-26 -41 -65 -79 -57 -56 -70 -75 -70 -100 0 -17 -4 -31 -9 -31 -26 0 -43 -34
-36 -76 5 -37 3 -44 -20 -62 -23 -18 -25 -26 -25 -96 0 -64 3 -78 17 -83 24
-9 34 -25 27 -46 -7 -24 147 -178 182 -182 14 -1 34 -11 44 -21 10 -11 27 -25
36 -33 16 -13 15 -16 -10 -36 -35 -28 -35 -69 0 -91 19 -13 24 -23 20 -40 -6
-21 15 -54 34 -54 4 0 10 -9 13 -19 3 -14 15 -21 43 -23 36 -3 39 -5 42 -37 3
-25 14 -44 40 -68 42 -39 48 -40 62 -13 15 27 43 25 76 -5 15 -14 34 -23 41
-21 18 7 43 -4 43 -19 0 -13 51 -25 107 -25 22 0 36 6 43 20 7 13 21 20 40 20
27 0 30 -3 30 -34 0 -28 4 -35 23 -38 12 -2 26 -13 32 -25 12 -28 41 -30 50
-3 3 11 17 23 31 26 13 3 24 12 24 20 0 11 35 14 195 14 184 0 195 1 205 20 8
16 21 20 60 20 38 0 54 5 70 23 l21 22 19 -22 c23 -29 36 -29 56 2 14 22 24
25 70 25 40 0 54 4 54 14 0 8 23 37 51 65 37 36 49 55 45 69 -5 13 7 31 45 67
49 47 51 49 44 91 -5 38 -3 45 19 60 22 14 26 24 26 68 0 43 -4 56 -25 74 -14
12 -25 31 -25 42 0 12 11 31 25 44 31 28 33 71 5 86 -11 6 -20 19 -20 30 0 10
9 22 20 25 18 6 20 15 20 82 0 68 -2 77 -24 94 -23 18 -24 24 -19 88 5 66 5
69 -21 86 -20 13 -26 26 -26 51 0 19 -4 34 -9 34 -5 0 -16 7 -25 15 -12 12
-14 30 -9 80 l6 64 -61 60 c-57 58 -63 61 -109 61 -44 0 -51 4 -88 45 -31 36
-46 45 -72 45 -23 0 -33 5 -38 20 -3 11 -12 20 -18 21 -38 2 -62 12 -74 29 -9
13 -26 20 -48 20 -25 0 -35 5 -40 20 -11 33 -52 37 -84 6 -27 -26 -91 -37 -91
-17 0 27 -34 41 -96 41 -56 0 -67 -3 -86 -25z m132 -90 c0 -9 8 -19 18 -22 9
-4 20 -11 24 -17 8 -12 -9 -36 -27 -36 -7 0 -15 -9 -18 -20 -7 -26 -34 -26
-42 -1 -3 11 -15 23 -26 26 -26 9 -24 22 9 55 30 31 62 38 62 15z m-765 -135
c3 -11 15 -25 26 -30 31 -17 27 -100 -6 -128 -14 -12 -25 -26 -25 -32 0 -5
-14 -10 -31 -10 -22 0 -42 10 -65 33 -29 27 -34 39 -34 78 0 36 5 50 25 67 14
12 25 26 25 32 0 5 18 10 39 10 31 0 41 -4 46 -20z m675 -5 c5 -14 16 -25 24
-25 8 0 18 -9 21 -20 9 -27 29 -25 49 6 l17 25 32 -35 c18 -19 37 -43 43 -53
10 -15 14 -14 47 20 20 20 37 41 37 46 0 22 31 19 46 -4 9 -14 23 -25 30 -25
8 0 14 -6 14 -13 0 -7 19 -31 43 -53 24 -21 46 -47 50 -56 9 -24 28 -23 34 2
3 11 16 23 29 26 24 6 33 37 15 48 -16 10 -41 -5 -41 -25 0 -12 -7 -19 -20
-19 -27 0 -27 40 0 47 10 3 22 14 25 24 7 22 45 26 45 5 0 -7 11 -21 25 -30
14 -9 25 -21 25 -26 0 -5 -11 -12 -25 -16 -14 -3 -25 -11 -25 -18 1 -15 52
-71 73 -79 9 -3 17 -13 17 -21 0 -8 9 -18 20 -21 11 -3 20 -13 20 -21 0 -8 7
-17 16 -21 22 -8 119 -105 127 -127 4 -9 10 -15 15 -14 11 3 92 -92 92 -107 0
-5 -7 -19 -15 -29 -13 -17 -12 -22 7 -49 12 -17 17 -28 11 -24 -12 8 -43 -17
-43 -34 0 -6 11 -20 25 -33 14 -13 25 -26 25 -29 0 -4 -13 -21 -29 -39 -34
-39 -32 -80 4 -104 19 -12 22 -22 19 -65 -2 -38 -7 -55 -23 -66 -17 -11 -21
-25 -21 -64 0 -46 -3 -53 -45 -91 -31 -28 -45 -50 -45 -67 0 -29 -33 -65 -67
-73 -16 -4 -31 4 -59 33 -21 22 -46 39 -56 39 -10 0 -18 7 -18 15 0 24 -45 40
-75 27 -22 -10 -25 -17 -25 -70 0 -92 -42 -130 -98 -88 -16 11 -66 59 -110
106 -81 85 -82 85 -97 63 -9 -13 -21 -23 -27 -23 -12 0 -78 69 -78 82 0 17
-17 7 -28 -17 -12 -26 -52 -35 -52 -12 0 31 -21 34 -51 7 -32 -31 -36 -40 -16
-40 7 0 23 -11 35 -25 12 -14 26 -25 32 -25 5 0 10 -9 10 -20 0 -16 -7 -20
-30 -20 -16 0 -30 5 -30 10 0 19 -28 10 -44 -15 -19 -28 -41 -33 -50 -9 -11
29 -6 44 19 54 24 9 35 30 15 30 -5 0 -18 10 -29 21 l-20 21 -50 -52 c-28 -29
-51 -57 -51 -61 0 -4 -8 -10 -18 -14 -11 -3 -24 -17 -30 -30 -8 -18 -19 -25
-40 -25 -26 0 -29 3 -24 25 3 20 1 24 -11 19 -9 -3 -18 -12 -21 -20 -7 -18
-30 -18 -46 1 -7 8 -24 15 -37 15 -14 0 -38 11 -54 24 -17 14 -36 22 -48 19
-12 -3 -24 3 -35 18 -11 16 -26 23 -48 24 -30 0 -33 3 -30 27 2 19 -4 34 -22
49 -32 28 -32 46 0 83 23 26 26 27 43 12 13 -12 37 -16 92 -16 79 0 92 4 102
34 6 15 14 17 52 12 40 -6 48 -4 69 18 13 15 34 26 50 26 38 0 186 149 186
187 0 16 10 36 23 48 22 19 23 25 19 117 -3 85 -6 98 -23 103 -16 5 -19 16
-19 65 0 49 -3 61 -20 70 -21 11 -28 40 -9 40 12 0 79 69 79 81 0 4 9 9 20 12
17 4 20 14 20 66 0 50 3 62 20 71 22 12 26 35 8 46 -6 4 -19 -2 -29 -14 -22
-28 -25 -28 -61 8 l-30 30 39 39 c22 21 42 45 46 54 10 25 36 20 47 -8z m-315
-43 c5 -11 17 -23 27 -25 22 -6 24 -33 3 -41 -11 -4 -19 3 -25 19 -12 32 -47
34 -52 3 -2 -15 -10 -23 -23 -23 -13 0 -20 -7 -20 -19 0 -10 -10 -22 -21 -27
-12 -4 -24 -14 -27 -23 -8 -20 -37 -21 -37 -1 0 8 9 19 20 25 11 6 20 17 20
25 0 7 9 16 19 20 11 3 23 15 26 26 4 10 15 19 26 19 12 0 19 7 19 18 0 38 28
41 45 4z m181 7 c3 -6 2 -15 -3 -20 -13 -13 -43 -1 -43 17 0 16 36 19 46 3z
m849 -53 c0 -22 -14 -29 -34 -17 -19 12 -6 43 16 39 10 -2 18 -12 18 -22z
m-1017 -56 c26 -35 28 -50 6 -50 -9 0 -18 -9 -21 -20 -7 -27 -19 -25 -54 9
-32 32 -37 51 -14 51 8 0 19 9 25 20 15 28 33 25 58 -10z m164 5 c6 -14 15
-25 20 -25 4 0 8 -23 8 -51 0 -50 -2 -53 -65 -114 -36 -34 -65 -67 -65 -73 0
-7 9 -17 20 -24 16 -10 20 -24 20 -65 0 -43 4 -55 25 -71 23 -18 25 -26 25
-106 0 -80 -2 -89 -25 -110 -14 -13 -25 -34 -25 -47 -1 -37 -84 -119 -120
-119 -21 0 -35 -8 -46 -25 -15 -23 -21 -25 -60 -19 -38 5 -46 3 -67 -20 -22
-23 -32 -26 -92 -26 -59 0 -71 3 -90 24 -19 21 -29 24 -64 19 -36 -5 -44 -2
-65 22 -16 19 -30 26 -41 21 -11 -4 -34 11 -76 51 -32 31 -59 62 -59 69 0 7
-12 26 -27 41 -26 27 -28 33 -25 105 3 64 6 77 22 81 16 4 20 16 22 68 3 58 5
64 23 61 53 -8 60 -7 63 15 2 14 -4 26 -17 33 -12 6 -21 15 -21 20 0 5 34 43
75 85 76 75 76 75 130 75 45 0 55 3 60 20 6 18 15 20 90 20 75 0 84 -2 90 -20
5 -17 15 -20 60 -20 47 0 56 -3 73 -27 l20 -27 61 62 c47 48 61 69 61 92 0 28
3 30 35 30 28 0 38 -5 47 -25z m810 -80 c6 -14 18 -25 26 -25 7 0 16 -9 19
-20 3 -11 11 -20 17 -20 18 0 35 -21 29 -36 -9 -23 -41 -17 -45 9 -2 14 -11
23 -26 25 -15 2 -22 9 -20 20 2 11 -5 18 -19 20 -14 2 -23 10 -23 21 0 38 26
41 42 6z m-92 -1075 c0 -6 11 -20 25 -32 26 -22 34 -71 14 -83 -16 -10 -79 60
-79 88 0 13 3 27 7 30 10 11 33 8 33 -3z m-308 -82 c14 -13 34 -28 44 -34 16
-10 17 -13 5 -28 -17 -20 -45 -21 -61 -1 -12 14 -15 14 -31 -1 -9 -8 -26 -14
-36 -12 -21 4 -31 48 -10 48 7 0 23 11 35 25 12 14 23 25 25 25 2 0 15 -10 29
-22z m-298 2 c23 -8 26 -15 26 -54 0 -53 -8 -76 -25 -76 -8 0 -17 -9 -20 -20
-6 -18 -47 -30 -44 -12 6 34 -3 72 -16 72 -32 0 -27 30 10 65 42 40 36 38 69
25z m-514 -14 c0 -8 -5 -18 -10 -21 -17 -11 -40 3 -34 20 8 19 44 20 44 1z"/>
<path d="M1220 1684 c0 -33 33 -30 38 4 3 17 -2 22 -17 22 -16 0 -21 -6 -21
-26z"/>
<path d="M1126 1571 c-10 -16 5 -42 23 -39 21 4 21 42 -1 46 -9 2 -19 -1 -22
-7z"/>
<path d="M1440 1511 c0 -11 9 -22 19 -26 10 -3 21 -15 24 -26 7 -25 40 -22 45
4 2 11 -6 20 -22 27 -14 5 -26 16 -26 25 0 8 -9 15 -20 15 -13 0 -20 -7 -20
-19z"/>
<path d="M1400 1435 c-11 -13 -11 -19 2 -32 17 -16 38 -10 38 11 0 8 -6 19
-14 25 -10 9 -16 8 -26 -4z"/>
<path d="M1893 1153 c-4 -9 -1 -19 5 -21 16 -5 39 -28 44 -44 6 -17 38 -2 38
18 0 9 -9 18 -19 21 -11 3 -21 13 -24 24 -6 24 -35 25 -44 2z"/>
<path d="M1050 425 c0 -8 5 -15 10 -15 6 0 10 7 10 15 0 8 -4 15 -10 15 -5 0
-10 -7 -10 -15z"/>
<path d="M1495 340 c-3 -5 1 -10 9 -10 9 0 16 5 16 10 0 6 -4 10 -9 10 -6 0
-13 -4 -16 -10z"/>
<path d="M820 295 c0 -9 5 -15 11 -13 6 2 11 8 11 13 0 5 -5 11 -11 13 -6 2
-11 -4 -11 -13z"/>
<path d="M1546 303 c-11 -11 -6 -23 9 -23 8 0 15 4 15 9 0 13 -16 22 -24 14z"/>
<path d="M1590 250 c0 -5 5 -10 11 -10 5 0 7 5 4 10 -3 6 -8 10 -11 10 -2 0
-4 -4 -4 -10z"/>
<path d="M868 1029 c-19 -11 -24 -63 -9 -88 13 -20 41 -6 43 21 4 61 -7 82
-34 67z"/>
<path d="M303 915 c-44 -46 -45 -91 -2 -140 30 -34 33 -35 103 -35 63 0 75 -3
95 -24 18 -19 32 -23 68 -22 40 1 50 6 79 41 45 53 45 88 -1 132 -34 33 -65
39 -65 11 0 -6 12 -29 26 -49 14 -21 23 -43 19 -48 -3 -6 -33 -11 -66 -11
l-59 0 0 34 c0 18 -7 39 -16 47 -13 11 -19 8 -37 -15 -20 -24 -28 -27 -72 -24
-58 4 -70 25 -35 63 22 23 25 65 5 72 -5 1 -25 -13 -42 -32z"/>
</g>
</svg>
